<?xml version="1.0" encoding="utf-8"?>
<!-- Generator: Adobe Illustrator 23.0.0, SVG Export Plug-In . SVG Version: 6.00 Build 0)  -->
<svg version="1.1" id="图层_1" xmlns="http://www.w3.org/2000/svg" xmlns:xlink="http://www.w3.org/1999/xlink" x="0px" y="0px"
	 viewBox="0 0 54.6 59.5" style="enable-background:new 0 0 54.6 59.5;" xml:space="preserve">
<style type="text/css">
	.st0{fill:#FF5562;}
	.st1{fill:#FFBBC0;}
	.st2{fill:#FFFFFF;}
</style>
<path class="st0" d="M5.8,0.2C5,0.2,4.2,0.5,3.7,1.1S2.8,2.4,2.8,3.1v53.3c0,0.7,0.3,1.5,0.9,2.1c0.6,0.6,1.3,0.9,2.1,0.9h43.4
	c0.7,0,1.5-0.3,2.1-0.9c0.6-0.6,0.9-1.3,0.9-2.1V16.9L35.4,0.2H5.8z"/>
<path class="st1" d="M52.1,16.9H38.3c-0.7,0-1.5-0.3-2.1-0.9c-0.6-0.5-0.9-1.3-0.9-2.1V0.2L52.1,16.9z"/>
<path class="st2" d="M37.2,28.5c0-0.1,0-0.2,0-0.4V21c0-0.3-0.1-0.5-0.3-0.7C36.6,20,36.3,20,36,20l-15.4,4.3
	c-0.4,0.1-0.7,0.4-0.7,0.9v17c-0.6-0.2-1.3-0.4-2-0.4c-0.5,0-1.1,0-1.6,0.2c-2.5,0.7-4.1,2.7-3.6,4.5c0.4,1.4,1.9,2.3,3.7,2.3
	c0.5,0,1.1-0.1,1.6-0.2c2.3-0.6,3.7-2.3,3.7-3.9c0-0.1,0-0.2,0-0.3v-11l13.6-3.8v8.4c-0.6-0.2-1.3-0.4-2-0.4c-0.5,0-1.1,0-1.6,0.2
	c-2.5,0.7-4.1,2.7-3.6,4.5c0.4,1.4,1.9,2.3,3.7,2.3c0.5,0,1.1,0,1.6-0.2c2.2-0.6,3.7-2.2,3.7-3.8c0-0.1,0-0.2,0-0.3V28.5z
	 M21.7,31.4v-3.3l13.6-3.8v3.3C35.3,27.6,21.7,31.4,21.7,31.4z"/>
</svg>
