<svg id="图层_1" data-name="图层 1" xmlns="http://www.w3.org/2000/svg" viewBox="0 0 125 125">
  <title>未标题-1</title>
  <path d="M62.5,24.5a38,38,0,1,1-38,38,38,38,0,0,1,38-38m0-9.5A47.5,47.5,0,1,0,110,62.5,47.5,47.5,0,0,0,62.5,15Z" style="fill: red"/>
  <path d="M104.15,103.65C67.92,59,34.05,51.94,33.68,51.85L36.3,40.14c1.71.38,52.07,14.39,68.07,63.29Z" style="fill: red"/>
  <path d="M42.36,101.87l.22-.44c3.58-30.17,18-48.2,36.12-67.54l.86-.93L88.44,41l-1,1.05C66.5,64.48,59.7,72.53,42.36,101.87Z" style="fill: red"/>
</svg>
