<?xml version="1.0" encoding="utf-8"?>
<!-- Generator: Adobe Illustrator 23.0.0, SVG Export Plug-In . SVG Version: 6.00 Build 0)  -->
<svg version="1.1" id="图层_1" xmlns="http://www.w3.org/2000/svg" xmlns:xlink="http://www.w3.org/1999/xlink" x="0px" y="0px"
	 viewBox="0 0 56 58" style="enable-background:new 0 0 56 58;" xml:space="preserve">
<style type="text/css">
	.st0{fill:#8095FF;}
	.st1{fill:#FFFFFF;}
</style>
<path class="st0" d="M2.7,1h50.6v56.3H2.7V1z"/>
<path class="st1" d="M6,5.6c0,1.3,1,2.3,2.3,2.3s2.3-1,2.3-2.3s-1-2.3-2.3-2.3S6,4.3,6,5.6z"/>
<path class="st1" d="M6,14.9c0,1.3,1,2.3,2.3,2.3s2.3-1,2.3-2.3s-1-2.3-2.3-2.3S6,13.6,6,14.9z"/>
<path class="st1" d="M6,24.3c0,1.3,1,2.3,2.3,2.3s2.3-1,2.3-2.3S9.6,22,8.3,22S6,23,6,24.3z"/>
<path class="st1" d="M6,33.7C6,35,7,36,8.3,36s2.3-1,2.3-2.3s-1-2.3-2.3-2.3S6,32.4,6,33.7z"/>
<path class="st1" d="M6,43.1c0,1.3,1,2.3,2.3,2.3s2.3-1,2.3-2.3s-1-2.3-2.3-2.3S6,41.8,6,43.1z"/>
<path class="st1" d="M6,52.4c0,1.3,1,2.3,2.3,2.3s2.3-1,2.3-2.3s-1-2.3-2.3-2.3S6,51.1,6,52.4z"/>
<path class="st1" d="M46.3,5.6c0,1.3,1,2.3,2.3,2.3s2.3-1,2.3-2.3s-1-2.3-2.3-2.3S46.3,4.3,46.3,5.6z"/>
<path class="st1" d="M46.3,14.9c0,1.3,1,2.3,2.3,2.3s2.3-1,2.3-2.3s-1-2.3-2.3-2.3S46.3,13.6,46.3,14.9z"/>
<path class="st1" d="M46.3,24.3c0,1.3,1,2.3,2.3,2.3s2.3-1,2.3-2.3s-1-2.3-2.3-2.3S46.3,23,46.3,24.3z"/>
<path class="st1" d="M46.3,33.7c0,1.3,1,2.3,2.3,2.3s2.3-1,2.3-2.3s-1-2.3-2.3-2.3S46.3,32.4,46.3,33.7z"/>
<path class="st1" d="M46.3,43.1c0,1.3,1,2.3,2.3,2.3s2.3-1,2.3-2.3s-1-2.3-2.3-2.3S46.3,41.8,46.3,43.1z"/>
<path class="st1" d="M46.3,52.4c0,1.3,1,2.3,2.3,2.3s2.3-1,2.3-2.3s-1-2.3-2.3-2.3S46.3,51.1,46.3,52.4z"/>
<path class="st1" d="M36,28.8l-12.4-8.5c-0.3-0.2-0.7-0.2-1,0C22.2,20.4,22,20.7,22,21v17c0,0.3,0.2,0.7,0.5,0.8
	c0.3,0.2,0.7,0.1,1,0L36,30.3c0.3-0.1,0.4-0.5,0.4-0.7C36.4,29.2,36.2,29,36,28.8z"/>
</svg>
